<svg width="70" height="70" viewBox="0 0 70 70" fill="none" xmlns="http://www.w3.org/2000/svg">
<path d="M32.4019 4.5C33.5566 2.5 36.4434 2.5 37.5981 4.5L62.7128 48C63.8675 50 62.4241 52.5 60.1147 52.5H9.88526C7.57586 52.5 6.13249 50 7.28719 48L32.4019 4.5Z" fill="#3A3A3A" fill-opacity="0.8"/>
<path d="M32.4019 14.5C33.5566 12.5 36.4434 12.5 37.5981 14.5L54.0526 43C55.2073 45 53.7639 47.5 51.4545 47.5H18.5455C16.2361 47.5 14.7927 45 15.9474 43L32.4019 14.5Z" fill="#F2AC44" fill-opacity="0.8"/>
<path d="M38.7026 26.7524L37.6772 36.2007L32.5503 36.2251L31.5249 26.7524V23.1025H38.7026V26.7524ZM35.1016 43.4028C34.1006 43.4028 33.2827 43.1343 32.6479 42.5972C32.0132 42.0438 31.6958 41.3114 31.6958 40.3999C31.6958 39.464 32.0132 38.7235 32.6479 38.1782C33.299 37.6248 34.1087 37.3481 35.0771 37.3481H35.1016C36.0781 37.3481 36.9123 37.6248 37.604 38.1782C38.2713 38.7235 38.605 39.464 38.605 40.3999C38.605 41.3114 38.2795 42.0438 37.6284 42.5972C36.9611 43.1343 36.1188 43.4028 35.1016 43.4028Z" fill="#626262"/>
</svg>
